# xmcd
#
# Track frame offsets:
#	150
#	19170
#	32353
#	48713
#	61950
#	74618
#	87090
#	96565
#	116888
#	128780
#	143635
#	156423
#	169723
#	181393
#	196393
#	209015
#	224518
#
# Disc length: 3112 seconds
#
# Revision: 1
# Processed by: cddbd v1.5.2PL0 Copyright (c) Steve Scherf et al.
# Submitted via: audiograbber 1.83.01
#
DISCID=070c2611
DTITLE=Ray Charles - The Best of
DYEAR=1900
DGENRE=Blues
TTITLE0=I Can't stop loving you
TTITLE1=Crying Time
TTITLE2=Georgia on my mind
TTITLE3=Take These Chains From My heart
TTITLE4=Yesterday
TTITLE5=That's Enough
TTITLE6=Busted
TTITLE7=What'd I say
TTITLE8=Together again
TTITLE9=Here we go again
TTITLE10=Makin' believe
TTITLE11=Eleanor Rigby
TTITLE12=Don't send me free
TTITLE13=Drown in my own tears
TTITLE14=Talkin' bout you
TTITLE15=The Right Time
TTITLE16=Hit the road Jack
EXTD=The best of ray charles
EXTT0=
EXTT1=
EXTT2=
EXTT3=
EXTT4=
EXTT5=
EXTT6=
EXTT7=
EXTT8=
EXTT9=
EXTT10=
EXTT11=
EXTT12=
EXTT13=
EXTT14=
EXTT15=
EXTT16=
PLAYORDER=
